<svg width="24" height="24" viewBox="0 0 24 24" fill="none" xmlns="http://www.w3.org/2000/svg">
<path fill-rule="evenodd" clip-rule="evenodd" d="M9.5 16.5L12 14L14.5 16.5C14.7761 16.7761 15.2239 16.7761 15.5 16.5C15.7761 16.2239 15.7761 15.7761 15.5 15.5L12.7071 12.7071C12.3166 12.3166 11.6834 12.3166 11.2929 12.7071L8.5 15.5C8.22386 15.7761 8.22386 16.2239 8.5 16.5C8.77614 16.7761 9.22386 16.7761 9.5 16.5ZM9.5 10.5L12 8L14.5 10.5C14.7761 10.7761 15.2239 10.7761 15.5 10.5C15.7761 10.2239 15.7761 9.77614 15.5 9.5L12.7071 6.70711C12.3166 6.31658 11.6834 6.31658 11.2929 6.70711L8.5 9.5C8.22386 9.77614 8.22386 10.2239 8.5 10.5C8.77614 10.7761 9.22386 10.7761 9.5 10.5Z" fill="#41F6D7"/>
</svg>
